<svg xmlns="http://www.w3.org/2000/svg" viewBox="0 0 420 520" role="img" aria-label="Stainless steel water bottle illustration">
  <defs>
    <linearGradient id="gBody" x1="0" y1="0" x2="0" y2="1">
      <stop offset="0" stop-color="#e8f4ff"/>
      <stop offset="0.45" stop-color="#cfe7ff"/>
      <stop offset="1" stop-color="#f7fbff"/>
    </linearGradient>
    <linearGradient id="gStroke" x1="0" y1="0" x2="1" y2="1">
      <stop offset="0" stop-color="#0a84ff" stop-opacity=".55"/>
      <stop offset="1" stop-color="#7dffbd" stop-opacity=".45"/>
    </linearGradient>
    <filter id="shadow" x="-20%" y="-20%" width="140%" height="160%">
      <feDropShadow dx="0" dy="18" stdDeviation="18" flood-color="#0f172a" flood-opacity=".22"/>
    </filter>
  </defs>
  <g filter="url(#shadow)">
    <rect x="145" y="40" width="130" height="78" rx="26" fill="#0b2238" opacity=".92"/>
    <rect x="158" y="58" width="104" height="44" rx="18" fill="#ffffff" opacity=".16"/>
    <path d="M150 116h120c24 0 44 20 44 44v250c0 56-46 102-102 102h-2c-56 0-102-46-102-102V160c0-24 20-44 44-44z" fill="url(#gBody)" stroke="url(#gStroke)" stroke-width="4"/>
    <path d="M150 188c28 18 78 28 120 28s92-10 120-28v178c0 48-40 88-88 88h-64c-48 0-88-40-88-88V188z" fill="#0a84ff" opacity=".08"/>
    <rect x="152" y="246" width="236" height="90" rx="22" fill="#ffffff" opacity=".44"/>
    <path d="M186 268h168" stroke="#0f172a" stroke-opacity=".18" stroke-width="10" stroke-linecap="round"/>
    <path d="M206 300h128" stroke="#0f172a" stroke-opacity=".16" stroke-width="10" stroke-linecap="round"/>
  </g>
</svg>

