<svg xmlns="http://www.w3.org/2000/svg" viewBox="0 0 420 520" role="img" aria-label="Outdoor trail water bottle illustration">
  <defs>
    <linearGradient id="body" x1="0" y1="0" x2="0" y2="1">
      <stop offset="0" stop-color="#e9f6ff"/>
      <stop offset=".55" stop-color="#d3eaff"/>
      <stop offset="1" stop-color="#f7fbff"/>
    </linearGradient>
    <linearGradient id="accent" x1="0" y1="0" x2="1" y2="1">
      <stop offset="0" stop-color="#0a84ff"/>
      <stop offset="1" stop-color="#7dffbd"/>
    </linearGradient>
    <pattern id="grip" width="14" height="14" patternUnits="userSpaceOnUse">
      <path d="M0 14L14 0" stroke="#0f172a" stroke-opacity=".08" stroke-width="4"/>
    </pattern>
    <filter id="shadow" x="-20%" y="-20%" width="140%" height="160%">
      <feDropShadow dx="0" dy="18" stdDeviation="18" flood-color="#0f172a" flood-opacity=".20"/>
    </filter>
  </defs>
  <g filter="url(#shadow)">
    <rect x="146" y="38" width="128" height="86" rx="30" fill="#0f172a" opacity=".88"/>
    <path d="M150 124h120c28 0 50 22 50 50v236c0 60-48 108-108 108h-4c-60 0-108-48-108-108V174c0-28 22-50 50-50z" fill="url(#body)" stroke="url(#accent)" stroke-opacity=".40" stroke-width="4"/>
    <rect x="156" y="212" width="232" height="200" rx="28" fill="url(#grip)"/>
    <rect x="160" y="258" width="220" height="84" rx="22" fill="#0a84ff" opacity=".10"/>
    <path d="M192 288h156" stroke="#0f172a" stroke-opacity=".14" stroke-width="10" stroke-linecap="round"/>
  </g>
</svg>

