<svg xmlns="http://www.w3.org/2000/svg" viewBox="0 0 420 520" role="img" aria-label="Mint sport water bottle illustration">
  <defs>
    <linearGradient id="body" x1="0" y1="0" x2="0" y2="1">
      <stop offset="0" stop-color="#d9fff0"/>
      <stop offset="0.55" stop-color="#b8ffe4"/>
      <stop offset="1" stop-color="#f6fffb"/>
    </linearGradient>
    <linearGradient id="stroke" x1="0" y1="0" x2="1" y2="1">
      <stop offset="0" stop-color="#0a84ff" stop-opacity=".50"/>
      <stop offset="1" stop-color="#7dffbd" stop-opacity=".55"/>
    </linearGradient>
    <filter id="shadow" x="-20%" y="-20%" width="140%" height="160%">
      <feDropShadow dx="0" dy="18" stdDeviation="18" flood-color="#0f172a" flood-opacity=".18"/>
    </filter>
  </defs>
  <g filter="url(#shadow)">
    <rect x="158" y="34" width="104" height="92" rx="28" fill="#0f172a" opacity=".88"/>
    <rect x="170" y="52" width="80" height="44" rx="18" fill="#7dffbd" opacity=".28"/>
    <path d="M150 126h120c26 0 48 22 48 48v232c0 62-50 112-112 112h-8c-62 0-112-50-112-112V174c0-26 22-48 48-48z" fill="url(#body)" stroke="url(#stroke)" stroke-width="4"/>
    <path d="M156 210c28 18 78 28 120 28s92-10 120-28v180c0 52-44 96-96 96h-48c-52 0-96-44-96-96V210z" fill="#0a84ff" opacity=".08"/>
    <rect x="154" y="258" width="232" height="82" rx="22" fill="#0a84ff" opacity=".10"/>
    <path d="M192 288h156" stroke="#0f172a" stroke-opacity=".14" stroke-width="10" stroke-linecap="round"/>
  </g>
</svg>

