<svg xmlns="http://www.w3.org/2000/svg" viewBox="0 0 420 520" role="img" aria-label="Glass water bottle illustration">
  <defs>
    <linearGradient id="glass" x1="0" y1="0" x2="0" y2="1">
      <stop offset="0" stop-color="#ffffff" stop-opacity=".72"/>
      <stop offset=".55" stop-color="#bfe8ff" stop-opacity=".28"/>
      <stop offset="1" stop-color="#ffffff" stop-opacity=".62"/>
    </linearGradient>
    <linearGradient id="stroke" x1="0" y1="0" x2="1" y2="1">
      <stop offset="0" stop-color="#22c3ff" stop-opacity=".55"/>
      <stop offset="1" stop-color="#7dffbd" stop-opacity=".45"/>
    </linearGradient>
    <filter id="shadow" x="-20%" y="-20%" width="140%" height="160%">
      <feDropShadow dx="0" dy="18" stdDeviation="18" flood-color="#0f172a" flood-opacity=".20"/>
    </filter>
  </defs>
  <g filter="url(#shadow)">
    <rect x="150" y="46" width="120" height="78" rx="22" fill="#0a84ff" opacity=".22" stroke="url(#stroke)" stroke-width="4"/>
    <path d="M150 124h120c26 0 46 20 46 46v230c0 64-52 116-116 116s-116-52-116-116V170c0-26 20-46 46-46z" fill="url(#glass)" stroke="url(#stroke)" stroke-width="4"/>
    <path d="M170 214c38 22 78 30 120 30s82-8 120-30v168c0 52-44 96-96 96h-48c-52 0-96-44-96-96V214z" fill="#22c3ff" opacity=".10"/>
    <rect x="160" y="258" width="220" height="84" rx="22" fill="#ffffff" opacity=".26" stroke="#0f172a" stroke-opacity=".08"/>
    <path d="M190 286h160" stroke="#0f172a" stroke-opacity=".14" stroke-width="10" stroke-linecap="round"/>
    <path d="M216 316h108" stroke="#0f172a" stroke-opacity=".12" stroke-width="10" stroke-linecap="round"/>
  </g>
</svg>

